<svg xmlns="http://www.w3.org/2000/svg" viewBox="0 0 512 512" width="512" height="512">
  <defs>
    <linearGradient id="mBgGrad" x1="0%" y1="0%" x2="100%" y2="100%">
      <stop offset="0%" stop-color="#1c1e1e"/>
      <stop offset="100%" stop-color="#0d0e0e"/>
    </linearGradient>
    <linearGradient id="mGoldGrad" x1="0%" y1="0%" x2="100%" y2="100%">
      <stop offset="0%" stop-color="#ffe19c"/>
      <stop offset="50%" stop-color="#f5a623"/>
      <stop offset="100%" stop-color="#d97706"/>
    </linearGradient>
    <linearGradient id="mLiquidGrad" x1="0%" y1="0%" x2="0%" y2="100%">
      <stop offset="0%" stop-color="#fcd34d"/>
      <stop offset="100%" stop-color="#b45309"/>
    </linearGradient>
  </defs>

  <!-- Full bleed background for maskable (safe zone is center 80%) -->
  <rect width="512" height="512" fill="url(#mBgGrad)"/>

  <!-- Safe Zone Graphic -->
  <circle cx="256" cy="256" r="140" fill="#181a1a" stroke="url(#mGoldGrad)" stroke-width="4"/>

  <g transform="translate(256, 248) scale(0.85)">
    <path d="M -34 -68 L 34 -68 Q 48 -10 60 22 Q 68 58 36 78 Q 0 94 -36 78 Q -68 58 -60 22 Q -48 -10 -34 -68 Z" 
          fill="none" stroke="url(#mGoldGrad)" stroke-width="8" stroke-linecap="round" stroke-linejoin="round"/>
    <path d="M -48 16 Q -56 50 -26 70 Q 0 80 26 70 Q 56 50 48 16 Q 24 24 0 24 Q -24 24 -48 16 Z" 
          fill="url(#mLiquidGrad)"/>
    <path d="M -16 84 L -18 102 L -42 110 L 42 110 L 18 102 L 16 84 Z" fill="url(#mGoldGrad)"/>
    <ellipse cx="0" cy="110" rx="44" ry="7" fill="url(#mGoldGrad)"/>
    <ellipse cx="0" cy="-68" rx="34" ry="6" fill="none" stroke="url(#mGoldGrad)" stroke-width="6"/>
    <path d="M -26 -50 Q -36 0 -44 32" fill="none" stroke="#ffffff" stroke-width="4" stroke-linecap="round" opacity="0.6"/>
  </g>

  <text x="256" y="375" font-family="'Montserrat', sans-serif" font-size="22" font-weight="800" fill="url(#mGoldGrad)" text-anchor="middle" letter-spacing="3">
    DRAMTRACKER
  </text>
</svg>
